<svg width="60" height="60" viewBox="0 0 60 60" fill="none" xmlns="http://www.w3.org/2000/svg">
<path d="M55.1478 11.6839H33.5099L29.1995 6.57924C29.0573 6.41052 28.8476 6.31354 28.6268 6.31446H11.1823C8.50246 6.31446 6.33005 8.48687 6.33005 11.1667V12.5829H4.85222C2.17488 12.5829 0.0033867 14.7517 0 17.429V48.8329C0 51.5127 2.17241 53.6851 4.85222 53.6851H48.8177C51.4975 53.6851 53.67 51.5127 53.67 48.8329V47.4167H55.1478C57.8276 47.4167 60 45.2443 60 42.5645V16.5361C60 13.8563 57.8276 11.6839 55.1478 11.6839ZM52.1675 45.9573V48.8637C52.1641 50.7158 50.6636 52.2162 48.8116 52.2196H4.85222C3.00015 52.2162 1.49969 50.7158 1.49631 48.8637V17.4598C1.49969 15.6077 3.00015 14.1073 4.85222 14.1039H21.9951L26.3054 19.2085C26.4477 19.3773 26.6573 19.4742 26.8781 19.4733H48.8608C50.6841 19.5033 52.151 20.9812 52.1675 22.8046V45.9573ZM58.4975 42.6014C58.4942 44.4535 56.9937 45.9539 55.1416 45.9573H53.6638V22.8046C53.6638 20.1248 51.4914 17.9524 48.8116 17.9524H27.1798L22.8695 12.8477C22.7272 12.679 22.5175 12.582 22.2968 12.5829H7.83251V11.1667C7.8359 9.31461 9.33636 7.81415 11.1884 7.81077H28.3067L32.617 12.9154C32.7592 13.0842 32.9689 13.1811 33.1897 13.1802H55.1724C57.0245 13.1836 58.5249 14.6841 58.5283 16.5361L58.4975 42.6014Z" fill="#65E2D9"/>
</svg>
