<svg width="60" height="60" viewBox="0 0 60 60" fill="none" xmlns="http://www.w3.org/2000/svg">
<g clip-path="url(#clip0)">
<path d="M55.4868 16.279L55.485 16.2323C55.4589 15.656 55.4415 15.0463 55.431 14.3679C55.382 11.0596 52.7522 8.32312 49.4435 8.13818C42.545 7.75321 37.2084 5.50376 32.6486 1.05935L32.6097 1.02227C31.1224 -0.341407 28.8789 -0.341407 27.3912 1.02227L27.3523 1.05935C22.7925 5.50376 17.4559 7.75321 10.5575 8.13864C7.24921 8.32312 4.61891 11.0596 4.56992 14.3683C4.55985 15.0422 4.542 15.6519 4.51591 16.2323L4.51316 16.3408C4.37904 23.3753 4.21241 32.13 7.14118 40.0763C8.75158 44.4461 11.1905 48.2446 14.3898 51.367C18.0336 54.9229 22.8063 57.7459 28.575 59.7573C28.7627 59.8228 28.9577 59.8759 29.1563 59.9157C29.4365 59.9715 29.7185 59.9995 30.0005 59.9995C30.2824 59.9995 30.5649 59.9715 30.8446 59.9157C31.0432 59.8759 31.2396 59.8223 31.4282 59.7564C37.1901 57.7413 41.9577 54.9169 45.5983 51.3615C48.7962 48.2382 51.2351 44.4387 52.8469 40.068C55.7867 32.0979 55.6205 23.3267 55.4868 16.279ZM49.5437 38.8499C46.4547 47.2251 40.1491 52.9769 30.2664 56.433C30.2312 56.4449 30.1936 56.4555 30.1547 56.4632C30.0526 56.4834 29.9487 56.4834 29.8453 56.4628C29.8068 56.455 29.7693 56.4449 29.7345 56.433C19.8413 52.9833 13.5315 47.2348 10.4448 38.8591C7.74542 31.5344 7.89832 23.4979 8.03336 16.4081L8.03427 16.3688C8.06174 15.7595 8.08005 15.1213 8.09012 14.4201C8.11209 12.9511 9.28213 11.7357 10.7538 11.6538C14.6576 11.4359 18.0872 10.6815 21.2384 9.34759C24.3855 8.0155 27.1806 6.13776 29.7826 3.60725C29.9149 3.49556 30.0865 3.4951 30.2184 3.60725C32.8207 6.13776 35.6158 8.0155 38.7625 9.34759C41.9137 10.6815 45.3433 11.4359 49.2475 11.6538C50.7192 11.7357 51.8893 12.9511 51.9108 14.4205C51.9213 15.1255 51.9396 15.7636 51.9671 16.3688C52.1017 23.4668 52.2509 31.5097 49.5437 38.8499Z" fill="#65E2D9"/>
<path d="M29.9996 15.0481C21.7544 15.0481 15.0468 21.7562 15.0468 30.001C15.0468 38.2462 21.7544 44.9543 29.9996 44.9543C38.2444 44.9543 44.9525 38.2462 44.9525 30.001C44.9525 21.7562 38.2444 15.0481 29.9996 15.0481ZM29.9996 41.4331C23.6957 41.4331 18.5674 36.3048 18.5674 30.001C18.5674 23.6971 23.6957 18.5688 29.9996 18.5688C36.303 18.5688 41.4313 23.6971 41.4313 30.001C41.4313 36.3048 36.303 41.4331 29.9996 41.4331Z" fill="#65E2D9"/>
<path d="M34.2971 25.3585L27.3519 32.3037L25.4668 30.4187C24.7793 29.7311 23.6646 29.7311 22.9771 30.4187C22.29 31.1062 22.29 32.2209 22.9771 32.908L26.1072 36.0382C26.451 36.3819 26.9015 36.5536 27.3519 36.5536C27.8023 36.5536 28.2528 36.3819 28.5966 36.0382L36.7869 27.8479C37.474 27.1603 37.474 26.0456 36.7869 25.3585C36.0993 24.6705 34.9847 24.6705 34.2971 25.3585Z" fill="#65E2D9"/>
</g>
<defs>
<clipPath id="clip0">
<rect width="60" height="60" fill="white"/>
</clipPath>
</defs>
</svg>
