<svg width="60" height="60" viewBox="0 0 60 60" fill="none" xmlns="http://www.w3.org/2000/svg">
<path d="M20.6934 9.35297L52.6906 9.2171V30.889L35.0674 30.9636V34.8628H52.8265C54.9439 34.8628 56.6654 33.1403 56.6654 31.0236V9.2171C56.6654 7.10056 54.9437 5.37793 52.8265 5.37793H20.6934C18.576 5.37793 16.8544 7.10056 16.8544 9.2171V16.0422H20.7361L20.6934 9.35297Z" fill="#65E2D9"/>
<path d="M58.7462 35.783H35.0674V40.3235H56.714C58.5287 40.3235 60 38.8523 60 37.0366C60 36.3447 59.4391 35.783 58.7462 35.783Z" fill="#65E2D9"/>
<path d="M27.9542 19.0232H13.9955C11.717 19.0232 9.86346 20.8767 9.86346 23.1554V28.9003H12.1283C12.7319 28.9003 13.3026 29.0246 13.8383 29.2215V23.1554C13.8383 23.069 13.9079 22.9981 13.9955 22.9981H27.9542C28.0417 22.9981 28.1115 23.0689 28.1115 23.1554V42.53H17.1011V48.1488H27.9543C30.233 48.1488 32.0865 46.2953 32.0865 44.0166V23.1554C32.0864 20.8768 30.2329 19.0232 27.9542 19.0232ZM20.9749 46.3324C20.4723 46.3324 20.0472 46.0364 19.8317 45.6161C19.7405 45.4387 19.6764 45.2454 19.6764 45.033C19.6764 44.3157 20.2588 43.7347 20.9749 43.7347C21.6912 43.7347 22.2733 44.3157 22.2733 45.033C22.2733 45.2455 22.2094 45.4387 22.1182 45.6161C21.9027 46.0364 21.4775 46.3324 20.9749 46.3324Z" fill="#65E2D9"/>
<path d="M12.1284 31.3848H2.4882C1.11594 31.3848 0 32.5017 0 33.8738V52.1335C0 53.5059 1.11594 54.6219 2.4882 54.6219H12.1283C13.5006 54.6219 14.6166 53.5059 14.6166 52.1335V33.8738C14.6167 32.5017 13.5007 31.3848 12.1284 31.3848ZM2.98116 34.3659H11.6355V50.15H2.98116V34.3659ZM7.30918 53.4127C7.03558 53.4127 6.79109 53.302 6.60458 53.1313C6.39319 52.9392 6.25719 52.6694 6.25719 52.3617C6.25719 51.7813 6.72701 51.3117 7.30918 51.3117C7.8875 51.3117 8.35744 51.7813 8.35744 52.3617C8.35744 52.6694 8.22145 52.939 8.0118 53.1313C7.82554 53.302 7.58105 53.4127 7.30918 53.4127Z" fill="#65E2D9"/>
</svg>
