<svg width="50" height="50" viewBox="0 0 50 50" fill="none" xmlns="http://www.w3.org/2000/svg">
<g clip-path="url(#clip0)">
<path d="M31.7329 14.2609C31.7329 15.3393 30.8586 16.2136 29.7802 16.2136H23.0431C21.9643 16.2136 21.0899 15.3393 21.0899 14.2609C21.0899 13.1824 21.9643 12.3081 23.0431 12.3081H29.7802C30.8586 12.3081 31.7329 13.1824 31.7329 14.2609ZM18.1137 9.04617C17.2318 8.42514 16.0137 8.63647 15.3927 9.51843L12.6053 13.4762L11.1515 12.0079C10.3928 11.2419 9.15642 11.2354 8.39005 11.9942C7.62367 12.7529 7.61757 13.9896 8.37631 14.756L10.5831 16.9846C10.593 16.9945 10.6026 17.0044 10.6129 17.0139C11.1797 17.5625 11.9389 17.8677 12.7209 17.8677C12.7872 17.8677 12.854 17.8658 12.9204 17.8612C13.773 17.8047 14.5668 17.3862 15.099 16.7137C15.1211 16.6851 15.1428 16.6565 15.1634 16.6267L18.586 11.7672C19.207 10.8852 18.9953 9.66721 18.1137 9.04617ZM29.7802 24.128H23.0431C21.9643 24.128 21.0899 25.0019 21.0899 26.0807C21.0899 27.1591 21.9643 28.0334 23.0431 28.0334H29.7802C30.8586 28.0334 31.7329 27.1591 31.7329 26.0807C31.7329 25.0019 30.8586 24.128 29.7802 24.128V24.128ZM18.1137 20.866C17.2318 20.245 16.0137 20.4563 15.3927 21.3383L12.6053 25.296L11.1515 23.8277C10.3928 23.0614 9.15642 23.0553 8.39005 23.814C7.62367 24.5728 7.61757 25.8095 8.37631 26.5759L10.5831 28.8044C10.593 28.8143 10.6026 28.8242 10.6129 28.8338C11.1797 29.3823 11.9389 29.6875 12.7209 29.6875C12.7872 29.6875 12.854 29.6856 12.9204 29.681C13.773 29.6246 14.5668 29.2061 15.099 28.5336C15.1211 28.5049 15.1428 28.4763 15.1634 28.4466L18.586 23.587C19.207 22.7051 18.9953 21.4867 18.1137 20.866V20.866ZM50 7.22542V13.4743C50 17.7814 46.4958 21.2852 42.189 21.2852H39.6416V32.4162C39.6416 33.4949 38.7672 34.3693 37.6888 34.3693C36.6104 34.3693 35.7361 33.4949 35.7361 32.4162V7.22542C35.7361 6.06613 36.0161 4.97169 36.5089 4.00314H7.81097C5.65758 4.00314 3.90549 5.75523 3.90549 7.90863V42.2779C3.90549 44.4313 5.65758 46.1834 7.81097 46.1834H31.8306C33.984 46.1834 35.7361 44.4313 35.7361 42.2779C35.7361 41.1995 36.6104 40.3252 37.6888 40.3252C38.7672 40.3252 39.6416 41.1995 39.6416 42.2779C39.6416 46.5851 36.1374 50.0889 31.8306 50.0889H7.81097C3.50418 50.0889 0 46.5851 0 42.2779V7.90863C0 3.60184 3.50418 0.0976562 7.81097 0.0976562H42.9615C42.9916 0.0976562 43.0214 0.100708 43.0511 0.102234C46.899 0.197601 50 3.35503 50 7.22542V7.22542ZM46.0945 7.22542C46.0945 5.44853 44.6491 4.00314 42.8722 4.00314H42.8638C41.087 4.00314 39.6416 5.44853 39.6416 7.22542V17.3798H42.189C44.3424 17.3798 46.0945 15.6277 46.0945 13.4743V7.22542ZM29.7802 35.8444H23.0431C21.9643 35.8444 21.0899 36.7188 21.0899 37.7972C21.0899 38.876 21.9643 39.7503 23.0431 39.7503H29.7802C30.8586 39.7503 31.7329 38.876 31.7329 37.7972C31.7329 36.7188 30.8586 35.8444 29.7802 35.8444ZM18.1137 32.5829C17.2318 31.9618 16.0137 32.1732 15.3927 33.0547L12.6053 37.0129L11.1515 35.5446C10.3928 34.7782 9.15642 34.7721 8.39005 35.5309C7.62367 36.2896 7.61757 37.5263 8.37631 38.2927L10.5831 40.5212C10.593 40.5312 10.6026 40.5407 10.6129 40.5506C11.1797 41.0992 11.9389 41.4043 12.7209 41.4043C12.7872 41.4043 12.854 41.4024 12.9204 41.3979C13.773 41.341 14.5668 40.9229 15.099 40.25C15.1211 40.2218 15.1428 40.1928 15.1634 40.1634L18.586 35.3035C19.207 34.4219 18.9953 33.2035 18.1137 32.5829V32.5829Z" fill="#9FABB2"/>
</g>
<defs>
<clipPath id="clip0">
<rect width="50" height="50" fill="white"/>
</clipPath>
</defs>
</svg>
