<svg width="50" height="50" viewBox="0 0 50 50" fill="none" xmlns="http://www.w3.org/2000/svg">
<g clip-path="url(#clip0)">
<path d="M49.6267 24.0229C49.1804 23.5251 38.4456 11.8164 25 11.8164C11.5545 11.8164 0.819775 23.5251 0.373389 24.0229C-0.124463 24.5794 -0.124463 25.4206 0.373389 25.9771C0.819775 26.4749 11.5547 38.1836 25 38.1836C38.4454 38.1836 49.1803 26.4749 49.6267 25.9771C50.1245 25.4206 50.1245 24.5794 49.6267 24.0229ZM25 35.2539C19.3466 35.2539 14.7461 30.6534 14.7461 25C14.7461 19.3466 19.3466 14.7461 25 14.7461C30.6535 14.7461 35.254 19.3466 35.254 25C35.254 30.6534 30.6535 35.2539 25 35.2539Z" fill="#9FABB2"/>
<path d="M26.4648 22.0703C26.4648 20.5967 27.1964 19.3003 28.3093 18.5029C27.3106 17.9917 26.1968 17.6758 25 17.6758C20.9616 17.6758 17.6758 20.9616 17.6758 25C17.6758 29.0384 20.9616 32.3242 25 32.3242C28.6156 32.3242 31.6082 29.6842 32.1994 26.2346C29.2496 27.1843 26.4648 24.9533 26.4648 22.0703Z" fill="#9FABB2"/>
</g>
<defs>
<clipPath id="clip0">
<rect width="50" height="50" fill="white"/>
</clipPath>
</defs>
</svg>
